<svg width="24" height="24" viewBox="0 0 24 24" fill="none" xmlns="http://www.w3.org/2000/svg">
<path fill-rule="evenodd" clip-rule="evenodd" d="M7.28007 7.72001C7.42052 7.86064 7.49941 8.05126 7.49941 8.25001C7.49941 8.44876 7.42052 8.63939 7.28007 8.78001L4.81007 11.25H21.0001C21.199 11.25 21.3898 11.329 21.5304 11.4697C21.6711 11.6103 21.7501 11.8011 21.7501 12C21.7501 12.1989 21.6711 12.3897 21.5304 12.5303C21.3898 12.671 21.199 12.75 21.0001 12.75H4.81007L7.28007 15.22C7.35376 15.2887 7.41286 15.3715 7.45385 15.4635C7.49485 15.5555 7.51689 15.6548 7.51866 15.7555C7.52044 15.8562 7.50192 15.9562 7.4642 16.0496C7.42647 16.143 7.37033 16.2278 7.29911 16.299C7.22789 16.3703 7.14306 16.4264 7.04967 16.4641C6.95628 16.5019 6.85625 16.5204 6.75555 16.5186C6.65485 16.5168 6.55553 16.4948 6.46353 16.4538C6.37153 16.4128 6.28873 16.3537 6.22007 16.28L2.47007 12.53C2.32962 12.3894 2.25073 12.1988 2.25073 12C2.25073 11.8013 2.32962 11.6106 2.47007 11.47L6.22007 7.72001C6.3607 7.57956 6.55132 7.50067 6.75007 7.50067C6.94882 7.50067 7.13945 7.57956 7.28007 7.72001Z" fill="white"/>
</svg>
