<svg width="33" height="33" viewBox="0 0 33 33" fill="blue" xmlns="http://www.w3.org/2000/svg">
<g clip-path="url(#clip0_315_6)" filter="url(#filter0_d_315_6)">
<path d="M16.3442 24.1804C19.5268 24.1804 22.5791 22.9161 24.8295 20.6656C27.08 18.4152 28.3442 15.363 28.3442 12.1804C28.3442 8.99776 27.08 5.94551 24.8295 3.69508C22.5791 1.44464 19.5268 0.180359 16.3442 0.180359C13.1616 0.180359 10.1094 1.44464 7.85896 3.69508C5.60852 5.94551 4.34424 8.99776 4.34424 12.1804C4.34424 15.363 5.60852 18.4152 7.85896 20.6656C10.1094 22.9161 13.1616 24.1804 16.3442 24.1804Z" fill="white"/>
</g>
<defs>
<filter id="filter0_d_315_6" x="0.344238" y="0.180359" width="32" height="32" filterUnits="userSpaceOnUse" color-interpolation-filters="sRGB">
<feFlood flood-opacity="0" result="BackgroundImageFix"/>
<feColorMatrix in="SourceAlpha" type="matrix" values="0 0 0 0 0 0 0 0 0 0 0 0 0 0 0 0 0 0 127 0" result="hardAlpha"/>
<feOffset dy="4"/>
<feGaussianBlur stdDeviation="2"/>
<feComposite in2="hardAlpha" operator="out"/>
<feColorMatrix type="matrix" values="0 0 0 0 0 0 0 0 0 0 0 0 0 0 0 0 0 0 0.25 0"/>
<feBlend mode="normal" in2="BackgroundImageFix" result="effect1_dropShadow_315_6"/>
<feBlend mode="normal" in="SourceGraphic" in2="effect1_dropShadow_315_6" result="shape"/>
</filter>
<clipPath id="clip0_315_6">
<rect width="24" height="24" fill="blue" transform="translate(4.34424 0.180359)"/>
</clipPath>
</defs>
</svg>
