<svg width="51" height="51" viewBox="0 0 51 51" fill="none" xmlns="http://www.w3.org/2000/svg">
<path d="M49.7397 23.9972L44.7336 18.9972L27.2121 1.49722C26.7427 1.02855 26.1061 0.765259 25.4424 0.765259C24.7787 
0.765259 24.1421 1.02855 23.6727 1.49722L6.15118 18.9972L1.14503 23.9972C0.68907 24.4687 0.436774 25.1002 0.442477 
25.7557C0.44818 26.4112 0.711426 27.0383 1.17552 27.5018C1.63961 27.9653 2.26741 28.2282 2.92371 28.2339C3.58001 
28.2396 4.21229 27.9876 4.68437 27.5322L5.41778 26.7997V45.7647C5.41778 47.0908 5.94521 48.3626 6.88404 49.3003C7.82288 
50.2379 9.09621 50.7647 10.4239 50.7647H17.9332C18.597 50.7647 19.2337 50.5013 19.7031 50.0325C20.1725 49.5637 20.4362 
48.9278 20.4362 48.2647V38.2647C20.4362 37.6017 20.6999 36.9658 21.1694 36.497C21.6388 36.0281 22.2755 35.7647 22.9393 
35.7647H27.9455C28.6093 35.7647 29.246 36.0281 29.7154 36.497C30.1848 36.9658 30.4485 37.6017 30.4485 38.2647V48.2647C30.4485 
48.9278 30.7123 49.5637 31.1817 50.0325C31.6511 50.5013 32.2878 50.7647 32.9516 50.7647H40.4608C41.7886 50.7647 43.0619 
50.2379 44.0007 49.3003C44.9396 48.3626 45.467 47.0908 45.467 45.7647V26.7997L46.2004 27.5322C46.6725 27.9876 47.3048 
28.2396 47.9611 28.2339C48.6174 28.2282 49.2452 27.9653 49.7092 27.5018C50.1733 27.0383 50.4366 26.4112 50.4423 
25.7557C50.448 25.1002 50.1957 24.4687 49.7397 23.9972Z" fill="red"/>
</svg>
