<svg version="1.0" xmlns="http://www.w3.org/2000/svg"
 width="512.000000pt" height="512.000000pt" viewBox="0 0 512.000000 512.000000"
 preserveAspectRatio="xMidYMid meet">

<g transform="translate(0.000000,512.000000) scale(0.100000,-0.100000)"
fill="#FFF" stroke="none">
<path d="M223 4301 c-72 -24 -127 -65 -163 -120 -47 -71 -61 -132 -58 -257 l3
-108 1270 -538 c699 -296 1277 -538 1285 -538 8 0 587 242 1285 538 l1270 538
0 130 c0 118 -2 134 -26 185 -33 71 -87 125 -158 158 l-56 26 -2300 2 c-2193
2 -2302 2 -2352 -16z"/>
<path d="M2 2258 l3 -1213 26 -56 c33 -71 87 -125 158 -158 l56 -26 2295 -3
c2521 -2 2344 -7 2442 58 26 17 61 52 78 78 63 95 60 30 58 1339 l-3 1191
-1260 -534 c-804 -340 -1272 -534 -1294 -534 -22 0 -445 175 -1265 521 -677
287 -1246 528 -1264 536 l-32 13 2 -1212z"/>
</g>
</svg>
