<svg width="50" height="40" viewBox="0 0 50 40" fill="none" xmlns="http://www.w3.org/2000/svg">
<path fill-rule="evenodd" clip-rule="evenodd" d="M32.6375 0.625H17.3625C13.945 0.625 11.1875 0.625 9.02 0.9175C6.77 1.2175 4.875 1.8675 3.37 3.37C1.865 4.875 1.22 6.77 0.9175 9.02C0.625 11.1875 0.625 13.945 0.625 17.3625V22.6375C0.625 26.055 0.625 28.8125 0.9175 30.98C1.2175 33.23 1.8675 35.125 3.37 36.63C4.875 38.135 6.77 38.78 9.02 39.085C11.1875 39.375 13.945 39.375 17.3625 39.375H32.6375C36.055 39.375 38.8125 39.375 40.98 39.085C43.23 38.78 45.125 38.135 46.63 36.63C48.135 35.125 48.78 33.23 49.085 30.98C49.375 28.8125 49.375 26.055 49.375 22.6375V17.3625C49.375 13.945 49.375 11.1875 49.085 9.02C48.78 6.77 48.135 4.875 46.63 3.37C45.125 1.865 43.23 1.22 40.98 0.9175C38.8125 0.625 36.055 0.625 32.6375 0.625ZM11.04 10.94C10.8352 10.8002 10.6047 10.7024 10.3619 10.6523C10.119 10.6021 9.86865 10.6007 9.62524 10.648C9.38183 10.6953 9.15022 10.7904 8.94381 10.9278C8.7374 11.0652 8.5603 11.2422 8.42275 11.4485C8.28521 11.6548 8.18995 11.8864 8.1425 12.1298C8.09505 12.3731 8.09634 12.6235 8.14631 12.8664C8.19627 13.1093 8.29392 13.3398 8.43359 13.5447C8.57326 13.7496 8.75218 13.9247 8.96 14.06L15.725 18.57C17.67 19.865 19.2525 20.92 20.635 21.64C22.08 22.3925 23.455 22.8625 25 22.8625C26.545 22.8625 27.92 22.3925 29.365 21.64C30.7475 20.9225 32.33 19.865 34.275 18.57L41.04 14.06C41.2478 13.9247 41.4267 13.7496 41.5664 13.5447C41.7061 13.3398 41.8037 13.1093 41.8537 12.8664C41.9037 12.6235 41.905 12.3731 41.8575 12.1298C41.8101 11.8864 41.7148 11.6548 41.5773 11.4485C41.4397 11.2422 41.2626 11.0652 41.0562 10.9278C40.8498 10.7904 40.6182 10.6953 40.3748 10.648C40.1313 10.6007 39.881 10.6021 39.6381 10.6523C39.3953 10.7024 39.1648 10.8002 38.96 10.94L32.28 15.3925C30.23 16.76 28.815 17.7 27.635 18.315C26.4925 18.9075 25.7275 19.11 25 19.11C24.275 19.11 23.505 18.91 22.365 18.315C21.185 17.7 19.77 16.76 17.72 15.3925L11.04 10.94Z" fill="white"/>
</svg>
