<svg width="51" height="51" viewBox="0 0 51 51" fill="none" xmlns="http://www.w3.org/2000/svg">
<path d="M39.0723 2.25725H12.4056C7.19727 2.25725 2.82227 6.63225 2.82227 11.8406V46.0072C2.82227 46.8406 3.23893 47.4656 3.86393 47.8822C4.2806 48.0906 4.48893 48.0906 4.9056 48.0906C5.32227 48.0906 5.73893 47.8822 6.1556 47.6739L16.3639 40.3822C18.0306 39.3406 19.9056 38.7156 21.7806 38.7156H39.0723C44.4889 38.7156 48.6556 34.3406 48.6556 29.1322V11.8406C48.6556 6.63225 44.2806 2.25725 39.0723 2.25725Z" fill="white"/>
<path d="M35.1141 17.8823H16.3641C15.1141 17.8823 14.2808 17.0489 14.2808 15.7989C14.2808 14.5489 15.1141 13.7156 16.3641 13.7156H35.3224C36.5724 13.7156 37.4058 14.5489 37.4058 15.7989C37.4058 17.0489 36.3641 17.8823 35.1141 17.8823ZM25.7391 27.2573H16.3641C15.1141 27.2573 14.2808 26.4239 14.2808 25.1739C14.2808 23.9239 15.1141 23.0906 16.3641 23.0906H25.7391C26.9891 23.0906 27.8224 23.9239 27.8224 25.1739C27.8224 26.4239 26.9891 27.2573 25.7391 27.2573Z" fill="#404040"/>
</svg>
