<svg width="50" height="50" viewBox="0 0 50 50" fill="none" xmlns="http://www.w3.org/2000/svg">
<g opacity="0.5" clip-path="url(#clip0_310_6)">
<path d="M0 11.25C0 7.755 0 6.0075 0.57 4.63C0.946916 3.71977 1.49947 2.89272 2.1961 2.1961C2.89272 1.49947 3.71977 0.946916 4.63 0.57C6.0075 0 7.755 0 11.25 0C14.745 0 16.4925 0 17.87 0.57C18.7802 0.946916 19.6073 1.49947 20.3039 2.1961C21.0005 2.89272 21.5531 3.71977 21.93 4.63C22.5 6.0075 22.5 7.755 22.5 11.25C22.5 14.745 22.5 16.4925 21.93 17.87C21.5531 18.7802 21.0005 19.6073 20.3039 20.3039C19.6073 21.0005 18.7802 21.5531 17.87 21.93C16.4925 22.5 14.745 22.5 11.25 22.5C7.755 22.5 6.0075 22.5 4.63 21.93C3.71977 21.5531 2.89272 21.0005 2.1961 20.3039C1.49947 19.6073 0.946916 18.7802 0.57 17.87C0 16.4925 0 14.745 0 11.25ZM28.07 4.63C27.5 6.0075 27.5 7.755 27.5 11.25C27.5 14.745 27.5 16.4925 28.07 17.87C28.4469 18.7802 28.9995 19.6073 29.6961 20.3039C30.3927 21.0005 31.2198 21.5531 32.13 21.93C33.5075 22.5 35.255 22.5 38.75 22.5C42.245 22.5 43.9925 22.5 45.37 21.93C46.2802 21.5531 47.1073 21.0005 47.8039 20.3039C48.5005 19.6073 49.0531 18.7802 49.43 17.87C50 16.4925 50 14.745 50 11.25C50 7.755 50 6.0075 49.43 4.63C49.0531 3.71977 48.5005 2.89272 47.8039 2.1961C47.1073 1.49947 46.2802 0.946916 45.37 0.57C43.9925 0 42.245 0 38.75 0C35.255 0 33.5075 0 32.13 0.57C31.2198 0.946916 30.3927 1.49947 29.6961 2.1961C28.9995 2.89272 28.4469 3.71977 28.07 4.63ZM28.07 32.13C27.5 33.5075 27.5 35.255 27.5 38.75C27.5 42.245 27.5 43.9925 28.07 45.37C28.4469 46.2802 28.9995 47.1073 29.6961 47.8039C30.3927 48.5005 31.2198 49.0531 32.13 49.43C33.5075 50 35.255 50 38.75 50C42.245 50 43.9925 50 45.37 49.43C46.2802 49.0531 47.1073 48.5005 47.8039 47.8039C48.5005 47.1073 49.0531 46.2802 49.43 45.37C50 43.9925 50 42.245 50 38.75C50 35.255 50 33.5075 49.43 32.13C49.0531 31.2198 48.5005 30.3927 47.8039 29.6961C47.1073 28.9995 46.2802 28.4469 45.37 28.07C43.9925 27.5 42.245 27.5 38.75 27.5C35.255 27.5 33.5075 27.5 32.13 28.07C31.2198 28.4469 30.3927 28.9995 29.6961 29.6961C28.9995 30.3927 28.4469 31.2198 28.07 32.13ZM0.57 32.13C0 33.5075 0 35.255 0 38.75C0 42.245 0 43.9925 0.57 45.37C0.946916 46.2802 1.49947 47.1073 2.1961 47.8039C2.89272 48.5005 3.71977 49.0531 4.63 49.43C6.0075 50 7.755 50 11.25 50C14.745 50 16.4925 50 17.87 49.43C18.7802 49.0531 19.6073 48.5005 20.3039 47.8039C21.0005 47.1073 21.5531 46.2802 21.93 45.37C22.5 43.9925 22.5 42.245 22.5 38.75C22.5 35.255 22.5 33.5075 21.93 32.13C21.5531 31.2198 21.0005 30.3927 20.3039 29.6961C19.6073 28.9995 18.7802 28.4469 17.87 28.07C16.4925 27.5 14.745 27.5 11.25 27.5C7.755 27.5 6.0075 27.5 4.63 28.07C3.71977 28.4469 2.89272 28.9995 2.1961 29.6961C1.49947 30.3927 0.946916 31.2198 0.57 32.13Z" fill="white"/>
</g>
<defs>
<clipPath id="clip0_310_6">
<rect width="50" height="50" fill="white"/>
</clipPath>
</defs>
</svg>
