<svg width="50" height="50" viewBox="0 0 50 50" fill="none" xmlns="http://www.w3.org/2000/svg">
<g clip-path="url(#clip0_313_7)">
<path d="M49.4709 34.5083L46.0959 32.6021L27.5543 43.0771C26.7727 43.5185 25.8904 43.7505 24.9928 43.7505C24.0952 43.7505 23.2129 43.5185 22.4313 43.0771L3.88968 32.6L0.514675 34.5063C0.353369 34.5968 0.219086 34.7287 0.125628 34.8883C0.0321706 35.048 -0.0170898 35.2296 -0.0170898 35.4146C-0.0170898 35.5996 0.0321706 35.7812 0.125628 35.9409C0.219086 36.1005 0.353369 36.2324 0.514675 36.3229L24.473 49.8646C24.6294 49.9529 24.8059 49.9994 24.9855 49.9994C25.1651 49.9994 25.3417 49.9529 25.498 49.8646L49.4563 36.3229C49.6177 36.2324 49.7519 36.1005 49.8454 35.9409C49.9389 35.7812 49.9881 35.5996 49.9881 35.4146C49.9881 35.2296 49.9389 35.048 49.8454 34.8883C49.7519 34.7287 49.6177 34.5968 49.4563 34.5063L49.4709 34.5083Z" fill="white"/>
<path d="M49.4709 24.0917L46.0959 22.1854L27.5543 32.6604C26.7727 33.1018 25.8904 33.3338 24.9928 33.3338C24.0952 33.3338 23.2129 33.1018 22.4313 32.6604L3.88968 22.1833L0.514675 24.0896C0.353369 24.1801 0.219086 24.312 0.125628 24.4716C0.0321706 24.6313 -0.0170898 24.8129 -0.0170898 24.9979C-0.0170898 25.1829 0.0321706 25.3645 0.125628 25.5242C0.219086 25.6838 0.353369 25.8157 0.514675 25.9062L24.473 39.4479C24.6294 39.5363 24.8059 39.5827 24.9855 39.5827C25.1651 39.5827 25.3417 39.5363 25.498 39.4479L49.4563 25.9062C49.6177 25.8157 49.7519 25.6838 49.8454 25.5242C49.9389 25.3645 49.9881 25.1829 49.9881 24.9979C49.9881 24.8129 49.9389 24.6313 49.8454 24.4716C49.7519 24.312 49.6177 24.1801 49.4563 24.0896L49.4709 24.0917Z" fill="white"/>
<path d="M49.471 13.675L25.5127 0.133331C25.3557 0.0468871 25.1794 0.0015564 25.0002 0.0015564C24.8209 0.0015564 24.6446 0.0468871 24.4877 0.133331L0.529323 13.675C0.368017 13.7655 0.233734 13.8974 0.140277 14.0571C0.0468191 14.2167 -0.00244141 14.3983 -0.00244141 14.5833C-0.00244141 14.7683 0.0468191 14.95 0.140277 15.1096C0.233734 15.2692 0.368017 15.4011 0.529323 15.4917L24.4877 29.0333C24.644 29.1217 24.8206 29.1681 25.0002 29.1681C25.1798 29.1681 25.3563 29.1217 25.5127 29.0333L49.471 15.4917C49.6323 15.4011 49.7666 15.2692 49.86 15.1096C49.9535 14.95 50.0028 14.7683 50.0028 14.5833C50.0028 14.3983 49.9535 14.2167 49.86 14.0571C49.7666 13.8974 49.6323 13.7655 49.471 13.675Z" fill="white"/>
</g>
<defs>
<clipPath id="clip0_313_7">
<rect width="50" height="50" fill="white"/>
</clipPath>
</defs>
</svg>
