<svg width="40" height="50" viewBox="0 0 40 50" fill="none" xmlns="http://www.w3.org/2000/svg">
<path d="M0 42.8175C0 39.4181 1.35041 36.1579 3.75416 33.7542C6.15791 31.3504 9.41809 30 12.8175 30H27.1825C30.5819 30 33.8421 31.3504 36.2458 33.7542C38.6496 36.1579 40 39.4181 40 42.8175C40 45.7375 38.025 48.275 35.1425 48.75C31.5375 49.35 26.1875 50 20 50C13.8125 50 8.4625 49.35 4.8575 48.75C1.9775 48.275 0 45.7375 0 42.8175ZM7.5 12.5C7.5 9.18479 8.81696 6.00537 11.1612 3.66117C13.5054 1.31696 16.6848 0 20 0C23.3152 0 26.4946 1.31696 28.8388 3.66117C31.183 6.00537 32.5 9.18479 32.5 12.5C32.5 15.8152 31.183 18.9946 28.8388 21.3388C26.4946 23.683 23.3152 25 20 25C16.6848 25 13.5054 23.683 11.1612 21.3388C8.81696 18.9946 7.5 15.8152 7.5 12.5Z" fill="white"/>
</svg>
